# xmcd
#
# Track frame offsets:
#	150
#	11963
#	27034
#	42226
#	53883
#	67558
#	80802
#	93401
#	104501
#	118141
#	129979
#	143129
#	156969
#	171232
#	185614
#	197636
#	210765
#	223792
#
# Disc length: 3128 seconds
#
# Revision: 1
# Processed by: cddbd v1.5.2PL0 Copyright (c) Steve Scherf et al.
# Submitted via: audiograbber 1.83.01
#
DISCID=fc0c3612
DTITLE=Ella Fitzgerald - Masters of Music - CD 1
DYEAR=2005
DGENRE=Oldies
TTITLE0=(It's only a) Paper Moon
TTITLE1=Jubilee Swing
TTITLE2=My last goodbye
TTITLE3=Three little words
TTITLE4=Imagination
TTITLE5=Pack up your sins and go to the Devil
TTITLE6=Make love to me
TTITLE7=The Muffin Man
TTITLE8=What's the matter with me?
TTITLE9=I found my yellow basket
TTITLE10=I'm just a lucky so and so
TTITLE11=Chew-chew-chew
TTITLE12=Sugar pie
TTITLE13=Have mercy
TTITLE14=All over nothing at all
TTITLE15=Shine
TTITLE16=Woe is me
TTITLE17=Devoting my time to you
EXTD=
EXTT0=
EXTT1=
EXTT2=
EXTT3=
EXTT4=
EXTT5=
EXTT6=
EXTT7=
EXTT8=
EXTT9=
EXTT10=
EXTT11=
EXTT12=
EXTT13=
EXTT14=
EXTT15=
EXTT16=
EXTT17=
PLAYORDER=
